# xmcd
#
# Track frame offsets:
#	150
#	13539
#	29580
#	50462
#	62076
#	75621
#	96122
#	108240
#	115467
#	126604
#	135971
#	149737
#
# Disc length: 2190 seconds
#
# Revision: 1
# Processed by: cddbd v1.5.2PL0 Copyright (c) Steve Scherf et al.
# Submitted via: audiograbber 1.83.01
#
DISCID=aa088c0c
DTITLE=Slidawg and The Redneck Ramblers - Redneck Christmas V2
DYEAR=2012
DGENRE=Comedy
TTITLE0=Slidawg and The Redneck Ramblers - Feliz Navidad In Laredo
TTITLE1=Slidawg and The Redneck Ramblers - Under The Mistletoe
TTITLE2=Slidawg and The Redneck Ramblers - Hooterville Christmas Day party
TTITLE3=Slidawg and The Redneck Ramblers - Jingle Bell Pickin'
TTITLE4=Slidawg and The Redneck Ramblers - Santa's Big Sleigh
TTITLE5=Slidawg and The Redneck Ramblers - 'twas The Night Before Christmas
TTITLE6=Slidawg and The Redneck Ramblers - Deck The Halls Dangit
TTITLE7=Slidawg and The Redneck Ramblers - Jolly Ole St. Nickel Less
TTITLE8=Slidawg and The Redneck Ramblers - I Saw Mommy Kissing Uncle Claude
TTITLE9=Slidawg and The Redneck Ramblers - Joy To Moody Holler
TTITLE10=Slidawg and The Redneck Ramblers - The First Noel For Loen
TTITLE11=Slidawg and The Redneck Ramblers - Irresistable Santa
EXTD=
EXTT0=
EXTT1=
EXTT2=
EXTT3=
EXTT4=
EXTT5=
EXTT6=
EXTT7=
EXTT8=
EXTT9=
EXTT10=
EXTT11=
PLAYORDER=
